<?xml version="1.0" encoding="utf-8"?>
<!-- Generator: Adobe Illustrator 16.0.0, SVG Export Plug-In . SVG Version: 6.00 Build 0)  -->
<svg version="1.2" baseProfile="tiny" id="Layer_1" xmlns="http://www.w3.org/2000/svg" xmlns:xlink="http://www.w3.org/1999/xlink"
	 x="0px" y="0px" width="370px" height="82px" viewBox="0 0 370 82" xml:space="preserve">
<g>
	<path fill="#FFFFFF" d="M236.328,47.871c0.331-0.495,0.727-1.122,1.188-1.814c0.692-1.089,1.254-1.881,1.815-2.739
		c0.594-0.825,1.188-1.683,2.375-2.904h-4.454l-0.496,1.089h0.727c0.529,0,0.66,0.132,0.693,0.363c0.032,0.264,0,0.891-0.561,1.684
		l-2.74,3.992l-4.025-7.128h-0.092h-3.406h-10.717l-0.33,3.333h1.32l0.131-0.759c0.033-0.429,0.199-0.627,0.627-0.925
		c0.694-0.461,2.443-0.494,3.829-0.494v12.145c0,0.561-0.032,0.924-0.198,1.418c-0.1,0.199-0.197,0.627-0.461,0.826h4.916
		l0.396-1.057h-0.726c-0.561,0-0.957-0.099-1.287-0.463c-0.164-0.164-0.197-0.561-0.197-0.989v-11.88
		c0.725,0,3.232-0.033,3.729,0.429c0.66,0.627,1.613,2.014,1.613,2.014c0.328,0.55,0.697,1.148,1.052,1.716
		c0.956,1.484,1.583,2.574,2.079,3.795v3.96c0,0.562,0.033,1.155-0.166,1.649c-0.098,0.297-0.363,0.561-0.561,0.826h4.949l0.43-1.09
		h-0.726c-0.562,0-0.99-0.099-1.286-0.43c-0.166-0.197-0.199-0.561-0.199-1.021c0,0-0.066-3.697-0.032-4.158
		C235.733,48.795,235.999,48.366,236.328,47.871z"/>
	<path fill="#FFFFFF" d="M204.741,46.964l-1.584-0.692c-1.584-0.693-3.003-1.453-2.806-2.871c0.396-2.641,6.138-2.971,5.61,0.396
		h1.453l0.725-3.102c-1.254-0.363-2.641-0.594-4.223-0.594c-3.301,0.033-6.271,1.584-5.974,4.258
		c0.198,1.881,1.749,2.805,3.563,3.597l1.617,0.726c1.815,0.825,3.301,1.551,3.268,3.168c-0.066,1.749-1.717,2.952-3.861,2.971
		c-3.031,0.025-4.007-0.949-4.007-0.949c-0.046-0.049-5.761-6.278-5.761-6.278c2.178-0.429,3.827-1.914,3.729-3.927
		c-0.066-2.476-2.871-3.366-5.28-3.333l-6.435,0.033l-0.43,1.023h0.595c0.429,0,0.692,0.066,0.923,0.363
		c0.363,0.364,0.43,1.353,0.43,2.375v9.835c0,0.759-0.198,1.353-0.66,1.946h4.555l0.396-1.088h-0.659
		c-0.926,0-1.189-0.495-1.189-1.255l-0.032-11.946c2.476-0.429,5.115,0.33,5.115,2.541c0,1.75-1.782,2.904-4.554,3.037l7.557,8.678
		c0,0,4.199,0.307,5.445,0.331c3.563,0.065,6.6-2.013,6.566-5.049C208.833,48.91,206.853,47.888,204.741,46.964z"/>
	<path fill="#FFFFFF" d="M69.083,38.726h-1.452l0.132-0.66c0.132-0.858,0.033-1.485-0.561-2.145
		c-0.726-0.792-3.498-0.66-5.346-0.726v17.425c0,0.66,0.066,1.287,0.33,1.617c0.495,0.561,1.122,0.693,1.881,0.693h0.66
		l-0.396,1.121h-5.874c0.231-0.297,0.396-0.594,0.495-0.924c0.264-0.759,0.297-1.32,0.297-2.145l0.033-17.788
		c-1.881,0-4.389,0.033-5.445,0.759c-0.594,0.462-0.858,0.825-0.924,1.485l-0.132,0.891h-1.419l0.495-4.356h18.051L69.083,38.726z"
		/>
	<path fill="#FFFFFF" d="M84.956,55.952h-4.389c0.33-0.759,0.396-1.056,0.396-1.849v-6.501c-0.66,0.462-1.419,0.528-2.211,0.595
		c-0.693,0.032-1.518,0.065-2.277,0.099c-1.353,0.099-2.079,0.099-3.366,0.065v5.248c0,0.891,0.33,1.287,1.32,1.287h0.627
		l-0.363,1.089h-4.62c0.363-0.661,0.528-1.221,0.594-1.98c0.033-0.297,0.033-0.595,0.033-0.99V43.61c0-0.528,0.099-1.42-0.264-1.849
		c-0.264-0.264-0.561-0.264-1.056-0.264h-0.561l0.429-1.056h4.191c-0.132,0.331-0.198,0.396-0.23,0.627
		c-0.066,0.429-0.099,1.551-0.099,2.047v3.729h7.854l-0.033-3.233c0-0.528,0.066-1.387-0.297-1.815
		c-0.231-0.264-0.561-0.297-1.023-0.297h-0.594l0.462-1.056h4.224c-0.099,0.396-0.165,0.396-0.198,0.627
		c-0.099,0.462-0.132,1.551-0.132,2.047v10.526c0,0.858,0.33,1.255,1.353,1.255h0.66L84.956,55.952z"/>
	<path fill="#FFFFFF" d="M97.891,55.952l-11.022,0.033c0.231-0.298,0.462-0.628,0.561-0.991c0.165-0.626,0.132-1.154,0.132-1.814
		v-8.943c0-0.494,0-1.748-0.231-2.178c-0.264-0.429-0.528-0.594-1.056-0.594h-0.561l0.396-1.023c0,0,10.89-0.033,11.418,0
		l-0.462,3.399H95.68c0.066-0.825-0.066-1.32-0.528-1.782s-1.914-0.561-3.3-0.561c-0.726,0-1.188,0.033-1.848,0.165v5.214h6.237
		c-0.396,1.056-1.188,1.287-2.277,1.419c-0.462,0.032-0.924,0.065-1.452,0.099c-0.99,0.066-1.584,0.033-2.508,0.033v4.555
		c0,0.527,0.198,1.154,0.363,1.353c0.297,0.33,1.386,0.43,2.542,0.43c1.221,0,2.178,0,2.937-0.793
		c0.495-0.495,0.726-0.891,0.857-1.716h1.584L97.891,55.952z"/>
	<path fill="#FFFFFF" d="M128.449,55.985h-5.016l-0.033-1.98c-3.432,1.782-6.732,3.069-10.527,1.98
		c-4.356-1.255-4.125-6.469-4.158-11.056c-0.033-3.531,0.891-7.821,0.264-8.976c-0.297-0.528-0.891-0.858-1.584-0.858h-0.561
		l0.264-1.122h5.511c-0.264,0.429-0.297,0.693-0.396,1.122c-0.297,1.452-0.891,6.6-0.858,10.329c0.033,4.092,0.33,7.788,3.894,8.812
		c3.102,0.857,5.676,0.032,8.085-1.552V37.736c0-0.891,0-1.617-0.66-2.145c-0.495-0.429-0.958-0.495-1.584-0.495h-0.33l0.264-1.122
		h5.511c-0.264,0.495-0.363,0.792-0.495,1.32c-0.231,0.924-0.132,1.485-0.132,2.442v13.959c0,1.121-0.033,2.078,0.891,2.738
		c0.528,0.363,0.957,0.463,1.584,0.463h0.396L128.449,55.985z"/>
	<path fill="#FFFFFF" d="M144.85,41.629c-0.132,0.429-0.198,1.783-0.198,2.31l-0.033,12.046h-1.914
		c-0.066-0.661-0.264-0.792-0.594-1.32c-0.297-0.462-0.561-0.892-0.892-1.255l-8.514-9.933v8.646c0,0.925,0.132,2.08,0.297,2.278
		c0.33,0.363,0.726,0.495,1.122,0.495l0.627,0.033l-0.363,1.056h-4.356c0.331-0.298,0.594-0.693,0.726-1.056
		c0.33-0.893,0.297-1.32,0.33-2.245l0.033-8.976c0-0.495,0-1.485-0.396-1.914c-0.231-0.264-0.561-0.33-1.023-0.33h-0.594
		l0.429-1.023h4.356c0.231,0.792,0.726,1.32,1.386,2.146l7.755,9.141v-7.755c0-0.891-0.033-1.749-0.396-2.145
		c-0.231-0.264-0.561-0.363-1.023-0.363h-0.561l0.363-1.023h3.96C145.146,40.871,144.916,41.399,144.85,41.629z"/>
	<path fill="#FFFFFF" d="M153.264,55.985h-4.851c0.165-0.265,0.396-0.528,0.495-0.792c0.198-0.528,0.231-0.892,0.231-1.453V43.049
		c0-0.495,0-0.858-0.264-1.155c-0.264-0.264-0.528-0.429-0.924-0.429h-0.528l0.363-1.023h4.422c-0.264,0.264-0.33,0.528-0.462,0.792
		c-0.198,0.429-0.198,1.221-0.198,2.046v10.196c0,0.43,0.099,0.825,0.231,1.023c0.33,0.33,0.627,0.396,1.188,0.396h0.726
		L153.264,55.985z"/>
	<path fill="#FFFFFF" d="M167.421,44.435c-0.594,1.222-1.089,2.476-1.814,4.093c-1.188,2.639-2.409,5.741-2.475,7.557h-2.014
		c-0.23-1.419-1.551-4.983-2.771-7.986c-0.957-2.409-2.541-5.412-3.004-5.939c-0.33-0.363-0.693-0.693-1.188-0.693h-0.561
		l0.297-0.99l3.927-0.033l4.784,11.748l3.564-8.547c0.264-0.66,0.396-1.254,0.264-1.551c-0.164-0.363-0.494-0.627-0.957-0.627
		h-0.627l0.264-0.99h4.785C168.642,42.092,168.015,43.214,167.421,44.435z"/>
	<path fill="#FFFFFF" d="M182.897,55.952l-11.021,0.033c0.23-0.298,0.462-0.628,0.561-0.991c0.165-0.626,0.132-1.154,0.132-1.814
		v-8.943c0-0.494,0-1.748-0.23-2.178c-0.265-0.429-0.528-0.594-1.056-0.594h-0.562l0.396-1.023c0,0,10.891-0.033,11.418,0
		l-0.461,3.399h-1.387c0.066-0.825-0.066-1.32-0.527-1.782c-0.463-0.462-1.915-0.561-3.301-0.561c-0.726,0-1.188,0.033-1.848,0.165
		v5.214h6.236c-0.396,1.056-1.188,1.287-2.276,1.419c-0.462,0.032-0.924,0.065-1.452,0.099c-0.99,0.066-1.584,0.033-2.508,0.033
		v4.555c0,0.527,0.198,1.154,0.363,1.353c0.297,0.33,1.386,0.43,2.541,0.43c1.221,0,2.178,0,2.937-0.793
		c0.495-0.495,0.726-0.891,0.858-1.716h1.584L182.897,55.952z"/>
	<path fill="#FFFFFF" d="M215.867,55.985h-4.851c0.164-0.265,0.396-0.528,0.494-0.792c0.199-0.528,0.231-0.892,0.231-1.453V43.049
		c0-0.495,0-0.858-0.264-1.155c-0.265-0.264-0.528-0.429-0.925-0.429h-0.527l0.363-1.023h4.422c-0.264,0.264-0.33,0.528-0.462,0.792
		c-0.198,0.429-0.198,1.221-0.198,2.046v10.196c0,0.43,0.099,0.825,0.23,1.023c0.33,0.33,0.627,0.396,1.189,0.396h0.725
		L215.867,55.985z"/>
	<path fill="#FFFFFF" d="M263.281,47.24c0.693,3.498-1.056,7.028-4.785,7.689c-3.795,0.692-6.797-2.146-7.491-5.71
		c-0.659-3.498,0.792-7.128,4.62-7.788C259.453,40.805,262.621,43.709,263.281,47.24z M266.055,47.207
		c-0.595-4.521-4.488-7.656-10-6.897c-5.281,0.726-8.35,4.356-7.722,9.108c0.593,4.521,4.257,7.49,9.668,6.798
		C263.381,55.557,266.646,51.728,266.055,47.207z"/>
	<path fill="#FFFFFF" d="M277.57,43.873h-1.387c0-0.692-0.065-1.319-0.561-1.781c-0.43-0.462-1.649-0.561-2.904-0.561
		c-0.726,0-1.188,0.033-1.848,0.165v5.214h6.205c-0.133,0.362-0.363,0.99-0.793,1.154c-0.627,0.264-1.717,0.33-2.838,0.363
		c-0.99,0.033-1.65,0.066-2.574,0v4.884c0,0.528,0.197,1.057,0.396,1.255c0.165,0.164,0.595,0.363,1.09,0.363
		c0.164,0.032,0.595-0.033,0.759-0.033c-0.164,0.561-0.33,1.089-0.33,1.089h-5.049c0.23-0.298,0.463-0.628,0.561-0.991
		c0.166-0.626,0.133-1.121,0.133-1.781V44.27c0-0.494,0.033-1.848-0.198-2.277c-0.265-0.396-0.627-0.528-1.155-0.528h-0.562
		l0.429-1.023c0,0,10.494,0.033,11.121,0L277.57,43.873z"/>
	<path fill="#FFFFFF" d="M293.641,55.985h-5.874c0.198-0.298,0.396-0.562,0.495-0.892c0.264-0.792,0.297-1.32,0.297-2.145
		l0.033-15.511c0-0.66,0-1.254-0.43-1.749c-0.363-0.396-0.791-0.594-1.386-0.594h-0.396l0.33-1.122h5.28
		c-0.165,0.264-0.298,0.363-0.463,0.759c-0.296,0.693-0.362,1.881-0.362,3.103v14.751c0,0.627,0.066,1.254,0.33,1.584
		c0.495,0.561,1.122,0.727,1.881,0.727h0.66L293.641,55.985z"/>
	<path fill="#FFFFFF" d="M309.051,47.24c0.694,3.498-1.055,7.028-4.784,7.689c-3.794,0.692-6.798-2.146-7.491-5.71
		c-0.659-3.498,0.793-7.128,4.62-7.788C305.225,40.805,308.392,43.709,309.051,47.24z M311.824,47.207
		c-0.594-4.521-4.488-7.656-10-6.897c-5.279,0.726-8.348,4.356-7.721,9.108c0.594,4.521,4.257,7.49,9.668,6.798
		C309.15,55.557,312.418,51.728,311.824,47.207z"/>
	<path fill="#FFFFFF" d="M333.174,44.402c-0.594,1.188-1.121,2.475-1.814,4.059c-1.188,2.673-2.079,5.775-2.145,7.558h-2.047
		c-0.23-1.388-1.386-4.521-2.508-7.624c-0.164-0.494-0.396-1.188-0.659-1.748c-0.331,0.626-0.562,1.056-1.155,2.408
		c-1.156,2.673-2.014,5.182-2.079,6.964h-2.079c-0.23-1.388-1.551-4.983-2.772-7.954c-0.956-2.408-2.54-5.445-3.003-5.939
		c-0.33-0.363-0.693-0.66-1.188-0.66h-0.529l0.331-1.023h3.993l4.521,11.814c0.694-1.518,3.136-7.096,3.103-7.161
		c-0.561-1.518-1.188-2.673-1.453-2.97c-0.361-0.363-0.691-0.66-1.221-0.66h-0.561l0.363-1.023h4.025
		c1.254,3.334,3.168,8.646,4.191,11.616l3.268-8.151c0.264-0.659,0.561-1.551,0.396-1.848c-0.165-0.396-0.527-0.594-0.99-0.594
		h-0.56l0.296-1.023h4.784C334.428,42.059,333.769,43.181,333.174,44.402z"/>
	<path fill="#FFFFFF" d="M341.623,48.89c-1.553,0.1-2.971,0.066-4.488-0.099l2.276-5.676L341.623,48.89z M348.486,54.896h-0.561
		c-0.528,0-0.859-0.33-1.221-0.693c-0.463-0.495-1.815-3.63-2.806-6.039c-1.188-3.004-2.442-6.436-2.673-7.854h-3.531
		c0.76,1.584-0.561,4.817-1.782,7.524c-1.419,3.201-2.244,5.082-4.521,8.151h5.016l0.297-1.089h-0.627
		c-0.461,0-0.857-0.231-1.023-0.595c-0.131-0.297,0.066-0.99,0.331-1.649l0.99-2.344h3.597c0.76,0,1.484-0.165,1.946-0.726
		l2.344,6.402h3.894L348.486,54.896z"/>
</g>
<g>
	<path fill="#FFFFFF" d="M31.626,20.845c0,0.552-0.049,1.46,0.224,1.643c0.769,0.513,2.066,0.867,2.478,1.364
		c0.112,0.134-0.024,1.013-0.326,0.946c-2.073-0.457-2.165-0.431-3.687-0.414c-0.124,0.001-0.447-0.64-0.463-1.064
		c-0.01-0.266,0.37-0.54,0.513-0.976c0.236-0.723,0.052-4.062,0.128-6.319c0.017-0.509,0.069-0.699,0.562-0.699
		c0.454,0,0.52,0.313,0.514,0.696C31.542,17.625,31.626,19.268,31.626,20.845z"/>
	<path fill="none" d="M30.418,15.824c0-0.473,0.631-0.788,0.867-0.473"/>
	<path fill="none" d="M34.125,23.79c0.315,0.315,0,1.104-0.631,0.867c-1.104-0.395-2.129-0.237-3.233-0.395
		c-0.315-0.079-0.395-0.631-0.395-0.946"/>
	<path fill="none" d="M31.522,17.559c0,1.498-0.079,2.918,0.079,4.416c0,0.158,0.157,0.395,0.236,0.474"/>
	<path fill="#FFFFFF" d="M39.94,38.063c0.155-0.039,1.221-0.093,1.735,0c0.139,0.025,0.238,0.129,0.275,0.178
		c0.155,0.197,0.132,0.99,0.12,1.229c-0.025,0.516-0.297,0.806-0.292,1.255c0.037,3.613,0.123,7.876-0.074,8.635
		c-0.332,1.277-0.286,1.5-0.791,1.544c-0.146,0.014-0.303-0.026-0.395-0.459c-0.066-0.316-0.097-0.831-0.106-1.479
		c-0.02-1.488,0.01-5.335-0.055-6.831c-0.059-1.361-0.413-1.449-0.512-1.518c-0.134-0.093-0.306-0.138-0.345-0.365
		c-0.082-0.471,0.074-1.548,0.221-1.932C39.751,38.246,39.824,38.092,39.94,38.063z"/>
	<path fill="#FFDD00" d="M42.641,36.171"/>
	<path fill="#FFFFFF" d="M42.682,54.123c-1.229,0-3.097,0.066-3.452-0.159c-0.242-0.155-0.217-0.511-0.235-1.19
		c-0.122-4.572,0.045-9.134-0.032-13.708c0-0.394-0.128-1.03-0.681-1.03c-0.709,0-2.055-0.057-2.187,0.048
		c-0.104,0.052-0.181,0.116-0.236,0.237c-0.197,0.423-0.324,1.461-0.276,1.932c0.017,0.161,0.116,0.33,0.355,0.383
		c0.67,0.149,1.005,0.524,1.026,1.534c0.055,3.449,0.103,10.204-0.349,11.324c-0.227,0.562-1.269,0.934-1.542,0.347
		c-0.208-0.443-0.178-10.587-0.178-14.767c0-0.729-0.237-1.043-1.045-1.043c-1.019,0-1.947-0.013-2.984,0
		c-0.076,0.001-0.25,0.053-0.336,0.263c-0.232,0.572-0.354,1.926-0.237,2.129c0.038,0.067,0.085,0.176,0.347,0.205
		c1.354,0.145,1.986,0.776,2.019,2.174c0.05,2.149,0.359,10.21-0.579,11.066c-0.38,0.349-1.818,0.29-2.148,0.175
		c-0.237-0.082-0.376-0.27-0.401-0.503c-0.255-2.451,0.133-14.492-0.145-15.115c-0.104-0.236-0.215-0.282-0.44-0.348
		c-0.381-0.111-2.181,0.02-2.514-0.112c-0.071-0.028-0.215-0.058-0.228-0.217c-0.035-0.44,0.005-0.906,0.168-1.255
		c0.081-0.172,0.336-0.184,0.44-0.184c5.29-0.006,12.835,0.04,15.693-0.046c0.158-0.004,0.467-0.045,0.558-0.311
		c0.115-0.338,0.232-1.167,0.159-1.397c-0.041-0.14-0.099-0.191-0.282-0.237c-0.316-0.039-11.864-0.021-17.779-0.101
		c-0.316,0-0.873,0.038-0.947-0.236c-0.079-0.289-0.063-0.873,0.079-1.157c0.578-1.156,1.104-0.894,1.472-2.576
		c0.223-1.016-0.131-1.84,0.369-2.655c0.665-1.085,1.169-1.439,1.63-2.235c0.289-0.499-0.316-1.235-0.868-1.077
		c-0.394,0.157-2.812,1.761-4.1,3.943c-1.025,1.735-1.396,3.605-2.129,5.442c-0.184,0.459-0.449,0.573-1.185,0.652
		c-0.458,0.048-0.643,1.664-0.342,1.865c0.06,0.039,0.18,0.078,0.225,0.087c0.665,0.144,0.906,0.954,0.919,1.752
		c0,0,0.161,13.686-0.23,15.136c-0.275,1.027-0.538,0.892-0.795,1.004c-0.024,0.012-0.128,0.05-0.169,0.162
		c-0.108,0.283-0.233,0.977-0.146,1.334c0.033,0.135,0.079,0.211,0.256,0.211c9.015,0,19.717,0.004,23.489,0.004
		c0.198,0,0.288-0.039,0.36-0.328c0.101-0.356,0.182-0.864,0.145-1.15C43.135,54.123,42.869,54.123,42.682,54.123z M22.605,53.682
		c-0.421,0.47-0.823,0.641-0.833,0.082c-0.063-3.787-0.012-11.717,0.041-11.948c0.099-0.434,0.689-0.65,0.985,0.04
		C23.157,42.689,23.293,52.914,22.605,53.682z M26.751,53.658c-0.428,0.493-1.361,0.67-1.564,0.125
		c-0.324-0.869-0.151-12.565-0.105-12.802c0.088-0.455,0.91-0.405,1.209-0.19c0.686,0.49,0.796,0.88,0.865,1.984
		C27.352,45.926,27.402,52.909,26.751,53.658z"/>
</g>
</svg>
